<?xml version="1.0" standalone="no"?>
<!DOCTYPE svg PUBLIC "-//W3C//DTD SVG 20010904//EN"
 "http://www.w3.org/TR/2001/REC-SVG-20010904/DTD/svg10.dtd">
<svg version="1.0" xmlns="http://www.w3.org/2000/svg"
 width="1947.000000pt" height="1071.000000pt" viewBox="0 0 1947.000000 1071.000000"
 preserveAspectRatio="xMidYMid meet">

<g transform="translate(0.000000,1071.000000) scale(0.100000,-0.100000)"
fill="#000000" stroke="none">
<path d="M3410 9345 l0 -1365 431 0 c366 0 430 -2 427 -14 -2 -8 -709 -1189
-1573 -2625 l-1570 -2610 -562 -1 -563 0 0 -1365 0 -1365 2680 0 2680 0 0
1365 0 1365 -481 0 c-286 0 -479 4 -477 9 13 36 1634 2718 1640 2713 9 -10
619 -1023 625 -1039 4 -10 -54 -13 -301 -13 l-306 0 0 -1365 0 -1365 2940 0
2940 0 0 1365 0 1365 -305 0 c-168 0 -305 3 -305 6 0 9 632 1056 635 1052 8
-8 1635 -2719 1635 -2723 0 -3 -216 -5 -480 -5 l-480 0 0 -1365 0 -1365 2680
0 2680 0 0 1365 0 1365 -562 0 -563 1 -1570 2610 c-863 1436 -1571 2617 -1573
2625 -3 12 63 14 427 14 l431 0 0 1365 0 1365 -2625 0 -2625 0 0 -1365 0
-1365 431 0 c276 0 429 -4 427 -10 -6 -19 -1193 -1989 -1198 -1989 -5 0 -1191
1970 -1198 1990 -2 5 171 9 427 9 l431 0 0 1365 0 1365 -2625 0 -2625 0 0
-1365z m4900 0 l0 -1015 -566 0 c-334 0 -564 -4 -562 -9 7 -20 1813 -3020
1818 -3020 5 0 1811 3000 1818 3020 2 5 -222 9 -562 9 l-566 0 0 1015 0 1015
2275 0 2275 0 0 -1015 0 -1015 -569 -2 -569 -3 1787 -2970 1787 -2970 487 -3
487 -2 0 -1015 0 -1015 -2330 0 -2330 0 0 1015 0 1015 616 0 c364 0 614 4 612
9 -13 36 -2254 3748 -2260 3743 -9 -10 -1248 -2071 -1248 -2077 0 -3 198 -5
440 -5 l440 0 0 -1015 0 -1015 -2590 0 -2590 0 0 1015 0 1015 441 0 c349 0
440 3 436 13 -6 16 -1237 2060 -1245 2069 -6 5 -2247 -3707 -2260 -3743 -2 -5
249 -9 612 -9 l616 0 0 -1015 0 -1015 -2330 0 -2330 0 0 1015 0 1015 487 2
487 3 1787 2970 1787 2970 -569 3 -569 2 0 1015 0 1015 2275 0 2275 0 0 -1015z"/>
<path d="M18792 1064 c-196 -52 -345 -205 -392 -403 -18 -78 -8 -231 20 -306
65 -172 201 -294 376 -340 291 -76 597 114 659 410 8 39 15 90 15 115 0 241
-173 464 -406 524 -75 20 -201 20 -272 0z m249 -80 c159 -48 267 -150 319
-305 18 -53 21 -81 18 -159 -3 -85 -8 -104 -40 -172 -63 -133 -163 -216 -303
-253 -255 -66 -512 110 -557 381 -36 218 115 450 333 508 72 20 164 20 230 0z"/>
<path d="M18700 540 l0 -300 65 0 65 0 0 110 0 110 65 0 c105 0 145 -35 145
-125 0 -18 3 -47 6 -64 6 -31 7 -31 70 -31 l63 0 -4 32 c-2 18 -6 58 -9 89 -6
77 -28 117 -78 139 l-40 18 36 12 c103 34 126 176 41 256 -46 43 -100 54 -274
54 l-151 0 0 -300z m308 183 c38 -28 42 -90 8 -129 -22 -26 -31 -29 -105 -32
l-81 -4 0 89 c0 49 3 93 8 97 14 16 143 -1 170 -21z"/>
</g>
</svg>
